<?xml version="1.0" encoding="UTF-8" standalone="no"?>
<svg
   xmlns:dc="http://purl.org/dc/elements/1.1/"
   xmlns:cc="http://creativecommons.org/ns#"
   xmlns:rdf="http://www.w3.org/1999/02/22-rdf-syntax-ns#"
   xmlns:svg="http://www.w3.org/2000/svg"
   xmlns="http://www.w3.org/2000/svg"
   xmlns:sodipodi="http://sodipodi.sourceforge.net/DTD/sodipodi-0.dtd"
   xmlns:inkscape="http://www.inkscape.org/namespaces/inkscape"
   viewBox="0 0 1000.034 322.962"
   version="1.1"
   id="svg2"
   height="322.96201"
   width="1000.034"
   inkscape:version="0.91 r13725"
   sodipodi:docname="Visa_2014 Flat.svg">
  <sodipodi:namedview
     pagecolor="#ffffff"
     bordercolor="#666666"
     borderopacity="1"
     objecttolerance="10"
     gridtolerance="10"
     guidetolerance="10"
     inkscape:pageopacity="0"
     inkscape:pageshadow="2"
     inkscape:window-width="1366"
     inkscape:window-height="705"
     id="namedview5298"
     showgrid="false"
     inkscape:zoom="0.35355339"
     inkscape:cx="306.63834"
     inkscape:cy="11.498272"
     inkscape:window-x="-8"
     inkscape:window-y="-8"
     inkscape:window-maximized="1"
     inkscape:current-layer="svg2" />
  <defs
     id="defs4">
    <clipPath
       clipPathUnits="userSpaceOnUse"
       id="clipPath4157">
      <path
         d="M 0,792 612,792 612,0 0,0 0,792 Z"
         id="path4159"
         inkscape:connector-curvature="0" />
    </clipPath>
  </defs>
  <metadata
     id="metadata7">
    <rdf:RDF>
      <cc:Work
         rdf:about="">
        <dc:format>image/svg+xml</dc:format>
        <dc:type
           rdf:resource="http://purl.org/dc/dcmitype/StillImage" />
        <dc:title></dc:title>
      </cc:Work>
    </rdf:RDF>
  </metadata>
  <path
     inkscape:connector-curvature="0"
     id="path4163"
     style="fill:#1a1f71;fill-opacity:1;fill-rule:nonzero;stroke:none"
     d="m 495.14829,5.7060472 -66.81055,312.3510728 -80.80881,0 66.81661,-312.3510728 80.80275,0 z M 835.11351,207.4003 877.6547,90.096387 902.12438,207.4003 l -67.01087,0 z m 90.19968,110.65682 74.72031,0 -65.28085,-312.3510728 -68.92911,0 c -15.53413,0 -28.62181,9.0084398 -34.41902,22.8974598 l -121.25573,289.453613 84.8638,0 16.85137,-46.64472 103.6577,0 9.79153,46.64472 z M 714.35552,216.08091 c 0.35795,-82.42958 -113.94693,-87.00057 -113.18815,-123.829533 0.24913,-11.19378 10.92061,-23.11599 34.26122,-26.16332 11.5762,-1.49331 43.50023,-2.69525 79.69791,13.98008 l 14.15613,-66.26421 C 709.83921,6.7744372 684.82313,-1.0279541e-4 653.70038,-1.0279541e-4 573.81429,-1.0279541e-4 517.61471,42.431817 517.16556,103.24482 c -0.51007,44.96931 40.14332,70.04 70.70768,85.01562 31.51741,15.30945 42.07984,25.13132 41.92807,38.80787 -0.21831,20.95496 -25.13742,30.23046 -48.32621,30.58258 -40.65942,0.63134 -64.21245,-10.98741 -82.99418,-19.74092 l -14.66602,68.47386 c 18.90922,8.65636 53.75314,16.18965 89.83549,16.57817 84.92448,0 140.45627,-41.94021 140.70513,-106.88109 M 379.68371,5.7060472 248.75181,318.05712 l -85.41018,0 L 98.904606,68.777247 C 95.001357,53.449547 91.595874,47.816237 79.716153,41.339147 60.284882,30.782757 28.202959,20.912327 0,14.769117 l 1.9060992,-9.0630698 137.5061108,0 c 17.51303,0 33.27172,11.6551198 37.27817,31.8269798 l 34.03659,180.763613 84.06255,-212.5905928 84.89419,0 z" />
</svg>
